<svg xmlns="http://www.w3.org/2000/svg" style="display: none;">
  
    <symbol id="icon-guideline-adjunto-lineal" viewBox="0 0 512 512">
      <path d="m367 75c0-45-32-75-81-75-47 0-76 39-76 76 0 10 0 83-1 150 0 53 0 103 0 116 0 0 0 0 0 0 0 1 0 2 0 2l0 0c1 29 23 49 54 49l18 0 0-53-18 0c-1 0-1 0-1 0 0-14 0-62 0-114 1-67 1-140 1-150 0-8 5-23 23-23 29 0 29 17 29 22l0 0 0 326c0 1-8 58-68 58-60 0-68-59-68-59l0-296-52 0 0 296c0 30 28 112 120 112 84 0 120-73 120-111l0-326z"/>
    </symbol>
  
    <symbol id="icon-guideline-adjunto-lleno" viewBox="0 0 512 512">
      <path d="m255 0c-141 0-255 114-255 255 0 141 114 256 255 256 142 0 256-115 256-256 0-141-114-255-256-255z m83 356c0 25-25 75-83 75-62 0-82-56-82-76l0-205 35 0 0 205c0 0 5 42 48 42 41 0 47-41 47-41l0-226 0 0c0-10-7-16-20-16-12 0-18 9-18 17l0 184c1 0 1 0 2 0l12 0 0 34-12 0c-21 0-35-13-36-33l0 0 0-2 0-183c0-25 19-51 52-51 32 0 54 20 55 50l0 0z"/>
    </symbol>
  
    <symbol id="icon-guideline-alerta-lineal" viewBox="0 0 512 512">
      <path d="m511 471l-511 0 256-443z m-422-51l333 0-166-289z m186-57c0 11-9 20-19 20-11 0-20-9-20-20 0-10 9-19 20-19 10 0 19 9 19 19z m-34-155l29 0 0 112-29 0z"/>
    </symbol>
  
    <symbol id="icon-guideline-alerta-lleno" viewBox="0 0 512 512">
      <path d="m256 31l-256 443 512 0z m-17 155l34 0 0 145-34 0z m17 227c-14 0-25-12-25-26 0-13 11-25 25-25 14 0 25 12 25 25 0 14-11 26-25 26z"/>
    </symbol>
  
    <symbol id="icon-guideline-apagar-lineal" viewBox="0 0 512 512">
      <path d="m230 1l52 0 0 269-52 0z m162 82l-22-15-30 43 21 15c49 34 78 90 78 150 0 101-82 183-183 183-101 0-183-82-183-183 0-58 28-114 75-148l22-16-32-42-21 15c-61 45-97 116-97 191 0 130 106 236 236 236 130 0 236-106 236-236 0-77-37-149-100-193z"/>
    </symbol>
  
    <symbol id="icon-guideline-apagar-lleno" viewBox="0 0 512 512">
      <path d="m256 0c-141 0-256 115-256 256 0 141 115 256 256 256 141 0 256-115 256-256 0-141-115-256-256-256z m-17 121l34 0 0 129-34 0z m17 291c-79 0-143-64-143-143 0-45 22-88 59-115l20 28c-28 20-44 53-44 87 0 60 48 108 108 108 59 0 108-48 108-108 0-35-17-68-46-88l20-28c38 26 60 70 60 116 0 79-64 143-142 143z"/>
    </symbol>
  
    <symbol id="icon-guideline-basurero-lineal" viewBox="0 0 512 512">
      <path d="m218 187l15 226-35 2-15-226z m63 0l35 2-15 226-35-2z m121-108l-345 0 0 52 42 0 17 381 267 0 17-381 42 0 0-52z m-69 381l-167 0-15-329 197 0z m-142-460l117 0 0 52-117 0z"/>
    </symbol>
  
    <symbol id="icon-guideline-basurero-lleno" viewBox="0 0 512 512">
      <path d="m48 82l0 52 73 0 16 377 230 0 17-377 72 0 0-52z m151 354l-16-239 35-2 15 239z m107 0l-35-2 16-239 34 2z m-115-438l123 0 0 52-123 0z"/>
    </symbol>
  
    <symbol id="icon-guideline-buscador-lineal" viewBox="0 0 512 512">
      <path d="m194 389c-52 0-101-21-137-57-37-37-57-86-57-138 0-52 20-101 57-137 36-37 85-57 137-57 52 0 101 20 138 57 76 75 76 199 0 275-37 36-86 57-138 57z m0-335c-37 0-73 14-99 41-27 26-41 62-41 99 0 38 14 73 41 99 26 27 62 41 99 41 38 0 73-14 99-41 55-54 55-143 0-198-26-27-61-41-99-41z m138 239l179 180-38 38-180-179z"/>
    </symbol>
  
    <symbol id="icon-guideline-buscador-lleno" viewBox="0 0 512 512">
      <path d="m209 126c-22 0-43 8-59 24-16 16-24 37-24 59 0 22 8 43 24 59 16 15 37 24 59 24 22 0 43-9 59-24 32-33 32-86 0-118-16-16-37-24-59-24z m47-126c-142 0-256 114-256 256 0 141 114 255 256 255 141 0 255-114 255-255 0-142-114-256-255-256z m118 397l-96-96c-20 15-44 23-69 23-31 0-60-12-82-34-21-22-33-50-33-81 0-31 12-60 33-82 22-21 51-33 82-33 31 0 59 12 81 33 41 41 45 106 11 151l96 96z"/>
    </symbol>
  
    <symbol id="icon-guideline-candado-cerrado-lineal" viewBox="0 0 512 512">
      <path d="m241 357l0 41 32 0 0-41c7-4 12-12 12-21 0-15-13-28-28-28-15 0-27 13-27 28 0 9 4 17 11 21z m164-140l0-69c0-82-66-148-148-148-81 0-148 66-148 148l0 69-48 0 0 295 390 0 0-295z m-243-69c0-53 43-96 95-96 53 0 95 43 95 96l0 0 0 69-190 0z m237 312l-286 0 0-191 286 0 0 191z"/>
    </symbol>
  
    <symbol id="icon-guideline-candado-cerrado-lleno" viewBox="0 0 512 512">
      <path d="m404 217l0-70c0-81-66-147-147-147 0 0 0 0 0 0-82 0-148 66-148 147l0 70-49 0 0 295 391 0 0-295z m-243-70c0-52 43-95 96-95 52 0 95 43 95 95l0 0 0 70-191 0z m112 210l0 41-32 0 0-41c-7-5-12-12-12-21 0-16 12-28 28-28 15 0 27 12 27 28 0 9-4 16-11 21z"/>
    </symbol>
  
    <symbol id="icon-guideline-candado-lineal" viewBox="0 0 512 512">
      <path d="m237 358l0 40 33 0 0-40c6-5 11-13 11-22 0-15-12-28-28-28-15 0-27 13-27 28 0 9 5 17 11 22z m-79-141l0-69c0-52 43-95 95-95 53 0 96 43 96 95l52 0c0-81-66-147-148-147-81 0-147 66-147 147l0 69-48 0 0 295 389 0 0-295z m237 243l-285 0 0-190 285 0z"/>
    </symbol>
  
    <symbol id="icon-guideline-candado-lleno" viewBox="0 0 512 512">
      <path d="m162 217l0-69c0-53 43-96 95-96 53 0 95 43 95 96l53 0c0-82-67-148-148-148-81 0-148 66-148 148l0 69-48 0 0 295 390 0 0-295z m111 140l0 41-32 0 0-41c-7-4-11-12-11-21 0-15 12-28 27-28 15 0 28 13 28 28 0 9-5 17-12 21z"/>
    </symbol>
  
    <symbol id="icon-guideline-carpeta-lineal" viewBox="0 0 512 512">
      <path d="m408 222l0-139-196-1c-14-24-40-39-69-39l-63 0c-44 0-80 36-80 80l0 346 1 0-1 0 411 0 100-247z m-356-99c0-16 12-28 28-28l63 0c13 0 24 8 27 20l6 18 180 1 0 88-255 0-49 121z m324 295l-299 0 59-145 298 0z"/>
    </symbol>
  
    <symbol id="icon-guideline-carpeta-lleno" viewBox="0 0 512 512">
      <path d="m94 227l-94 237 417 0 94-237z m305-38l0-108-208 0 0-42-191 0 0 322 69-172z"/>
    </symbol>
  
    <symbol id="icon-guideline-carrito-lineal" viewBox="0 0 512 512">
      <path d="m163 364c0-10 8-19 19-19l261 0 68-252-389 0-14-53-108 0 0 52 68 0 61 226c-11 12-17 28-17 46 0 38 30 69 67 70-5 6-8 14-8 23 0 21 17 38 37 38 21 0 38-17 38-38 0-8-3-16-8-23l100 0c-5 7-8 14-8 23 0 21 17 38 38 38 20 0 37-17 37-38 0-8-3-16-8-23l47 0 0-51-262 0c-11 0-19-9-19-19z m281-219l-40 149-226 0-40-149z"/>
    </symbol>
  
    <symbol id="icon-guideline-carrito-lleno" viewBox="0 0 512 512">
      <path d="m163 367c0-11 9-19 19-19l262 0 67-252-389 0-14-53-108 0 0 51 68 0 61 226c-11 13-17 29-17 47 0 38 30 68 67 70-5 6-8 14-8 23 0 21 17 37 38 37 20 0 37-16 37-37 0-9-3-17-8-23l101 0c-5 6-8 14-8 23 0 21 16 37 37 37 21 0 38-16 38-37 0-9-3-17-8-23l46 0 0-52-262 0c-10 0-19-8-19-18z"/>
    </symbol>
  
    <symbol id="icon-guideline-casa-lineal" viewBox="0 0 512 512">
      <path d="m421 470l-154 0 0-111-22 0 0 111-154 0 0-177-91 0 256-251 256 251-91 0z m-101-52l48 0 0-178 15 0-127-124-127 124 14 0 0 178 49 0 0-112 127 0 0 112z"/>
    </symbol>
  
    <symbol id="icon-guideline-casa-lleno" viewBox="0 0 512 512">
      <path d="m420 462l-136 0 0-110-57 0 0 110-137 0 0-177-90 0 255-250 255 250-90 0z"/>
    </symbol>
  
    <symbol id="icon-guideline-cerrar-lineal" viewBox="0 0 512 512">
      <path d="m511 36l-37-36-219 219-219-219-36 36 219 219-219 219 36 37 219-219 219 219 37-37-219-219z"/>
    </symbol>
  
    <symbol id="icon-guideline-cerrar-lleno" viewBox="0 0 512 512">
      <path d="m255 0c-141 0-255 115-255 256 0 141 114 256 255 256 142 0 256-115 256-256 0-141-114-256-256-256z m117 351l-25 25-92-92-91 92-25-25 92-91-92-92 25-24 91 91 92-91 25 24-92 92z"/>
    </symbol>
  
    <symbol id="icon-guideline-check-lineal" viewBox="0 0 512 512">
      <path d="m207 450l-207-181 34-39 168 147 271-315 39 33z"/>
    </symbol>
  
    <symbol id="icon-guideline-check-lleno" viewBox="0 0 512 512">
      <path d="m256 0c-142 0-256 114-256 256 0 141 114 255 256 255 141 0 255-114 255-255 0-142-114-256-255-256z m-29 374l-114-99 23-26 87 76 144-166 26 22z"/>
    </symbol>
  
    <symbol id="icon-guideline-compartir-lineal" viewBox="0 0 512 512">
      <path d="m460 460l-408 0 0-408 265 0-10-52-307 0 0 512 512 0 0-314-52 73z m-277-100c41-168 188-195 222-199l15 72 92-141-140-92 14 66-19 5c-219 97-184 289-184 289z"/>
    </symbol>
  
    <symbol id="icon-guideline-compartir-lleno" viewBox="0 0 512 512">
      <path d="m256 0c-141 0-256 115-256 256 0 141 115 256 256 256 141 0 256-115 256-256 0-141-115-256-256-256z m56 124l70 46-45 71-8-36c-17 2-91 16-111 99 0 0-18-96 92-144l9-3z m73 253l-258 0 0-258 147 0 6 35-118 0 0 188 188 0 0-68 35-49z"/>
    </symbol>
  
    <symbol id="icon-guideline-dislike-lineal" viewBox="0 0 512 512">
      <path d="m288 510c-6 0-11 0-16-2-22-7-36-29-39-36l-2-5c0 0-11-34-23-61-16-36-50-78-65-95l-131 0 0-275 130 0c20-14 53-30 60-33l5-3 177 0c26 0 41 11 49 20 12 13 16 29 18 40 21 22 24 50 21 70 6 10 12 25 12 46 0 12-1 21-4 29 11 12 20 31 20 58 0 48-29 69-47 75l-3 1-100 0c5 17 9 39 9 67-1 60-31 104-71 104z m-8-61c3 4 6 8 8 9 4-1 18-18 18-53 1-51-17-75-18-76l-31-42 52-1 131 0c3-2 8-8 8-23 0-21-11-26-11-26l-51-16 43-29c0-2 3-6 3-15-1-14-5-21-5-21l-14-11 6-17c0-2 6-22-10-36l-11-8 1-14c0-3-1-11-4-14-2-2-6-3-11-3l-164 0c-18 9-43 22-51 29l-7 7-98 0 1 169 101 0 8 9c2 2 58 63 82 117 12 26 21 56 24 65z"/>
    </symbol>
  
    <symbol id="icon-guideline-dislike-lleno" viewBox="0 0 512 512">
      <path d="m10 289l129 0c0 0 61 66 87 123 14 33 26 72 26 72 0 0 11 21 26 26 31 9 58-31 59-87 1-70-26-103-26-103l152 0c0 0 32-10 32-55 0-46-32-57-32-57 0 0 14-10 14-40 0-31-16-44-16-44 0 0 15-43-21-72 0 0 4-51-46-51l-189 0c0 0-52 25-69 41l-127 0z"/>
    </symbol>
  
    <symbol id="icon-guideline-doc-legal-lineal" viewBox="0 0 512 512">
      <path d="m171 102l158 0 0 35-158 0z m0 77l158 0 0 35-158 0z m252-179l-346 0 0 458 140 0 0 54 65 0 0-54 141 0z m-52 405l-87 0c30-13 51-43 51-77 0-47-38-86-85-86-47 0-85 39-85 86 0 34 21 64 51 77l-87 0 0-352 242 0 0 352z m-121-27c-28 0-50-23-50-50 0-28 22-51 50-51 28 0 50 23 50 51 0 27-22 50-50 50z"/>
    </symbol>
  
    <symbol id="icon-guideline-doc-legal-lleno" viewBox="0 0 512 512">
      <path d="m243 290c-26 0-48 21-48 48 0 27 22 49 48 49 27 0 49-22 49-49 0-27-22-48-49-48z m-172-290l0 457 100 0 0 55 144 0 0-55 101 0 0-457z m94 81l157 0 0 35-157 0z m0 76l157 0 0 35-157 0z m101 261l0 57-46 0 0-57c-35-10-60-42-60-80 0-46 37-83 83-83 47 0 84 37 84 83 0 39-26 70-61 80z"/>
    </symbol>
  
    <symbol id="icon-guideline-doc-lineal" viewBox="0 0 512 512">
      <path d="m176 183l161 0 0 36-161 0z m0 79l161 0 0 36-161 0z m0 79l161 0 0 35-161 0z m186-341l-293 0 0 512 375 0 0-431z m-21 55l48 48-48 0z m-218 403l0-404 164 0 0 103 103 0 0 301-267 0z"/>
    </symbol>
  
    <symbol id="icon-guideline-doc-lleno" viewBox="0 0 512 512">
      <path d="m444 81l-82-81 0 0 0 82 82 0z m-118 37l0-118-257 0 0 512 375 0 0-394z m12 265l-162 0 0-36 162 0z m0-78l-162 0 0-36 162 0z m0-79l-162 0 0-36 162 0z"/>
    </symbol>
  
    <symbol id="icon-guideline-docs-lineal" viewBox="0 0 512 512">
      <path d="m390 51l0-52-258 0-83 81 0 361 75 0 0 71 343 0 0-461z m-237 3l0 48-49 0z m-50 102l104 0 0-103 129 0 0 334-233 0z m310 302l-235 0 0-17 212 0 0-336 23 0z"/>
    </symbol>
  
    <symbol id="icon-guideline-docs-lleno" viewBox="0 0 512 512">
      <path d="m151 1l-102 101 102 0z m229-1l-195 0 0 137-136 0 0 295 331 0z m36 52l0 416-293 0 0 44 340 0 0-460z"/>
    </symbol>
  
    <symbol id="icon-guideline-download-lineal" viewBox="0 0 512 512">
      <path d="m256 315l-204-222 112 0 0-94 184 0 0 94 112 0z m-86-170l86 93 86-93-45 0 0-94-81 0 0 94-46 0z m204 274c0 13-11 24-24 24-13 0-23-11-23-24 0-13 10-24 23-24 13 0 24 11 24 24z m73 0c0 13-11 24-24 24-13 0-24-11-24-24 0-13 11-24 24-24 13 0 24 11 24 24z m-18-124l-36 0-47 52 83 0c17 0 31 14 31 31l0 82-408 0 0-82c0-17 14-31 31-31l86 0-48-52-38 0c-46 0-83 37-83 83l0 134 512 0 0-134c0-46-37-83-83-83z"/>
    </symbol>
  
    <symbol id="icon-guideline-editar-lineal" viewBox="0 0 512 512">
      <path d="m200 358l-69 21 21-70 256-256 49 49z m298-347c-13-13-35-13-49 0l-19 19 49 49 19-19c14-13 14-35 0-49z m13 500l-511 0 0-511 344 0-61 62-221 0 0 388 388 0 0-223 61-61z"/>
    </symbol>
  
    <symbol id="icon-guideline-editar-lleno" viewBox="0 0 512 512">
      <path d="m256 0c-142 0-256 114-256 256 0 141 114 255 256 255 141 0 255-114 255-255 0-142-114-256-255-256z m97 135c6-6 17-6 24 0 6 7 6 18 0 24l-10 10-24-24z m3 45l-126 126-34 10 10-34 126-126z m29 204l-255 0 0-256 176 0-34 34-108 0 0 187 187 0 0-108 34-35z"/>
    </symbol>
  
    <symbol id="icon-guideline-flecha-abajo-lineal" viewBox="0 0 512 512">
      <path d="m256 443l-256-256 37-38 219 219 219-219 37 38z"/>
    </symbol>
  
    <symbol id="icon-guideline-flecha-abajo-lleno" viewBox="0 0 512 512">
      <path d="m255 1c-141 0-255 114-255 256 0 141 114 255 255 255 142 0 256-114 256-255 0-142-114-256-256-256z m0 368l-165-165 24-25 141 141 142-141 24 25z"/>
    </symbol>
  
    <symbol id="icon-guideline-flecha-arriba-lineal" viewBox="0 0 512 512">
      <path d="m474 396l-218-218-219 218-37-37 256-256 256 256z"/>
    </symbol>
  
    <symbol id="icon-guideline-flecha-arriba-lleno" viewBox="0 0 512 512">
      <path d="m256 0c-141 0-256 115-256 256 0 141 115 256 256 256 141 0 256-115 256-256 0-141-115-256-256-256z m141 335l-141-141-141 141-25-25 166-166 166 166z"/>
    </symbol>
  
    <symbol id="icon-guideline-flecha-derecha-lineal" viewBox="0 0 512 512">
      <path d="m146 512l-37-37 219-219-219-219 37-37 257 256z"/>
    </symbol>
  
    <symbol id="icon-guideline-flecha-derecha-lleno" viewBox="0 0 512 512">
      <path d="m256 0c-141 0-256 115-256 256 0 142 115 256 256 256 141 0 256-114 256-256 0-141-115-256-256-256z m-54 422l-25-25 141-141-141-141 25-25 166 166z"/>
    </symbol>
  
    <symbol id="icon-guideline-flecha-izquierda-lineal" viewBox="0 0 512 512">
      <path d="m323 512l-255-256 255-256 38 37-219 219 219 219z"/>
    </symbol>
  
    <symbol id="icon-guideline-flecha-izquierda-lleno" viewBox="0 0 512 512">
      <path d="m256 0c-142 0-256 114-256 256 0 141 114 255 256 255 141 0 255-114 255-255 0-142-114-256-255-256z m78 396l-25 25-165-165 165-166 25 25-140 141z"/>
    </symbol>
  
    <symbol id="icon-guideline-fono-lineal" viewBox="0 0 512 512">
      <path d="m333 512c-47 0-93-18-130-49-33-28-62-61-80-83l-17-23c-17-24-39-61-56-98-30-70-28-171 70-244l21-16 121 162-28 14c-13 7-40 27-38 43 2 15 11 34 25 54l16 21c15 20 32 35 45 41 17 7 46-16 53-24l21-23 123 165-21 15c-39 30-81 45-125 45z m-202-438c-68 66-43 141-33 164 15 34 36 67 50 89l16 21c16 20 43 50 73 75 16 14 50 37 96 37 24 0 49-7 72-20l-55-74c-16 11-37 22-60 22-10 0-20-3-29-7-27-12-51-37-66-56l-16-22c-20-29-32-55-35-78-5-36 20-64 40-80z"/>
    </symbol>
  
    <symbol id="icon-guideline-fono-lleno" viewBox="0 0 512 512">
      <path d="m228 132l-98-131c-99 74-99 173-70 241 19 41 43 81 60 106l18 24c20 24 52 60 87 90 58 49 155 78 253 5l-100-135c0 0-50 54-94 34-25-12-48-37-63-56l-18-24c-14-20-30-48-34-74-6-47 59-80 59-80z"/>
    </symbol>
  
    <symbol id="icon-guideline-historial-lineal" viewBox="0 0 512 512">
      <path d="m277 19c-86 0-161 47-202 117l-75-28 69 142 137-65-83-31c33-51 90-84 154-84 102 0 184 82 184 184 0 101-82 183-184 183-89 0-164-64-180-150l-47 23c25 102 117 178 227 178 130 0 235-105 235-234 0-130-105-235-235-235z m-32 70l0 180 129 69 25-45-102-55 0-149z"/>
    </symbol>
  
    <symbol id="icon-guideline-historial-lleno" viewBox="0 0 512 512">
      <path d="m256 1c-141 0-255 114-255 255 0 141 114 255 255 255 141 0 255-114 255-255 0-141-114-255-255-255z m-1 420c-77 0-142-54-160-126l32-16c11 61 64 108 128 108 72 0 131-59 131-131 0-72-59-131-131-131-46 0-86 24-110 60l59 22-97 47-48-101 54 20c28-49 81-82 142-82 91 0 165 74 165 165 0 91-74 165-165 165z m65-136l-17 29-80-45 0-119 34 0 0 99z"/>
    </symbol>
  
    <symbol id="icon-guideline-imagen-lineal" viewBox="0 0 512 512">
      <path d="m0 30l0 447 512 0 0-447z m455 57l0 240c-77-89-90-90-101-90l-12 1-8 6c-7 6-31 30-50 48-96-118-108-118-121-118l-5 0-4 2c-9 2-18 5-97 118l0-207z m0 332l-398 0 0-25c41-59 85-122 108-152 22 23 61 69 93 110l20 25 23-22c16-15 39-38 54-52 22 21 64 69 100 113z m-93-257c0 23-18 41-41 41-22 0-40-18-40-41 0-22 18-40 40-40 23 0 41 18 41 40z"/>
    </symbol>
  
    <symbol id="icon-guideline-imagen-lleno" viewBox="0 0 512 512">
      <path d="m368 292c-18 16-56 53-72 68l-14 13-12-15c-43-55-96-116-117-136-24 28-91 123-153 213l0 40 512 0 0-25c-58-68-121-138-144-158z m-368-255l0 336c128-185 139-189 145-191 12-3 24-7 141 139 21-20 59-57 67-64 0 0 6-5 15-4 8 0 23 2 144 143l0-359z m330 162c-26 0-46-20-46-45 0-26 20-46 46-46 25 0 45 20 45 46 0 25-20 45-45 45z"/>
    </symbol>
  
    <symbol id="icon-guideline-impresora-lineal" viewBox="0 0 512 512">
      <path d="m400 257c0 10-9 19-20 19-11 0-20-9-20-19 0-11 9-20 20-20 11 0 20 9 20 20z m-231 115l174 0 0 35-174 0z m265-246l-22 0 0-102-312 0 0 102-22 0c-43 0-78 35-78 78l0 212 100 0 0 72 312 0 0-72 100 0 0-212c0-43-35-78-78-78z m-283 26l0-76 209 0 0 93-209 0z m209 284l-209 0 0-93 209 0 0 93z m100-72l-48 0 0-72-312 0 0 72-48 0 0-160c0-15 12-26 26-26l22 0 0 42 312 0 0-42 22 0c14 0 26 11 26 26z"/>
    </symbol>
  
    <symbol id="icon-guideline-impresora-lleno" viewBox="0 0 512 512">
      <path d="m433 146l-21 0 0-102-313 0 0 102-22 0c-43 0-77 34-77 77l0 212 99 0 0-124 313 0 0 124 99 0 0-212c0-43-35-77-78-77z m-282 26l0-76 209 0 0 92-209 0z m228 110c-11 0-20-9-20-20 0-11 9-20 20-20 11 0 20 9 20 20 0 11-9 20-20 20z m-246 66l0 120 243 0 0-120z m209 79l-174 0 0-35 174 0z"/>
    </symbol>
  
    <symbol id="icon-guideline-lapiz-lineal" viewBox="0 0 512 512">
      <path d="m493 20c-26-25-69-26-95-1l-47 48 0 0-309 309-40 134 134-40 309-309 0 0 48-47c26-26 25-69 0-94z m-58 36c5-5 15-5 21 0 6 6 6 16 0 21l-11 11-21-21z m-326 368l-30 9 9-29 300-300 21 21z"/>
    </symbol>
  
    <symbol id="icon-guideline-lapiz-lleno" viewBox="0 0 512 512">
      <path d="m96 482l-94 28 28-93 346-347 66 66z m402-468c-18-18-47-19-66-1l-26 27 67 66 26-26c18-19 18-48-1-66z"/>
    </symbol>
  
    <symbol id="icon-guideline-like-lineal" viewBox="0 0 512 512">
      <path d="m384 512l-177 0-5-3c-7-3-40-19-60-34l-131 0 0-275 131 0c16-17 50-59 66-95 12-28 23-62 23-62l2-5c3-6 17-29 39-35 5-2 10-3 16-3 40 0 70 44 71 105 0 28-4 50-9 67l100 0 4 1c17 5 47 27 47 75 0 27-9 46-20 58 2 8 4 18 4 29 0 21-6 37-12 46 2 21-1 48-22 71-1 11-5 27-17 40-9 9-24 20-50 20z m-165-53l165 0c5 0 9-1 11-3 3-4 4-11 4-15l-1-13 11-9c16-13 11-34 10-36l-5-18 13-10c0 0 5-6 5-20 0-10-2-14-3-16l-42-29 51-16c1-1 10-6 10-26 0-14-5-21-8-23l-186 0 35-43c0-1 18-25 17-76 0-35-14-53-18-53-2 1-5 5-8 9-3 9-12 39-24 64-24 55-80 116-82 119l-8 8-102 0 0 170 97 0 8 7c8 7 32 20 50 29z"/>
    </symbol>
  
    <symbol id="icon-guideline-like-lleno" viewBox="0 0 512 512">
      <path d="m13 223l130 0c0 0 61-66 86-124 15-32 27-72 27-72 0 0 11-21 26-26 31-9 58 31 59 87 1 70-26 103-26 103l153 0c0 0 32 10 32 56 0 46-33 57-33 57 0 0 15 10 14 40 0 31-15 44-15 44 0 0 14 44-21 72 0 0 4 51-46 51l-191 0c0 0-52-25-69-40l-127 0z"/>
    </symbol>
  
    <symbol id="icon-guideline-link-lineal" viewBox="0 0 512 512">
      <path d="m489 358l-100-100c-15-14-34-22-55-22-17 0-33 5-46 16l-28-28c10-14 16-30 16-47 0-20-8-40-23-54l-100-100c-14-15-34-23-54-23-21 0-40 8-55 23l-21 21c-15 15-23 34-23 55 0 20 8 40 23 54l100 100c14 15 34 23 54 23 17 0 33-6 46-16l28 28c-10 13-15 29-15 46 0 21 8 40 22 55l100 100c15 14 34 22 55 22 20 0 40-8 54-22l22-22c14-14 22-34 22-54 0-21-8-40-22-55z m-330-141l-100-100c-5-5-7-12-7-18 0-7 2-13 7-18l22-22c5-5 11-7 18-7 7 0 13 2 18 7l100 100c5 5 7 11 7 18 0 3 0 6-1 9l-27-27-37 37 27 26c-9 3-20 2-27-5z m293 214l-21 21c-10 10-27 10-36 0l-100-100c-5-5-8-11-8-18 0-3 1-6 2-8l27 27 37-37-28-27c3-1 6-2 9-2 7 0 13 3 18 8l100 100c5 5 8 11 8 18 0 7-3 13-8 18z"/>
    </symbol>
  
    <symbol id="icon-guideline-link-lleno" viewBox="0 0 512 512">
      <path d="m311 280c-2-3-6-4-9-4-1 0-1 0-1 0l13 14-24 24-14-13c0 0 0 1 0 1 0 3 1 7 4 9l59 59c5 5 14 5 19 0l12-12c5-6 5-14 0-19z m-139-139c-3-3-6-4-9-4-4 0-7 1-10 4l-12 12c-3 3-4 6-4 10 0 3 1 6 4 9l59 59c3 3 6 4 10 4l-13-14 24-24 14 13c0-3-1-7-4-10z m83-141c-141 0-255 114-255 255 0 142 114 256 255 256 142 0 256-114 256-256 0-141-114-255-256-255z m140 382l-13 13c-9 9-21 14-34 14-12 0-24-5-33-14l-60-59c-8-9-13-21-13-34 0-10 3-19 8-27l-14-14c-8 5-17 8-27 8-13 0-25-5-34-14l-59-59c-9-9-14-21-14-33 0-13 5-25 14-34l13-13c18-18 49-18 67 0l59 59c17 17 19 43 6 61l14 14c18-12 45-11 61 6l59 59c18 18 18 48 0 67z"/>
    </symbol>
  
    <symbol id="icon-guideline-maleta-lineal" viewBox="0 0 512 512">
      <path d="m408 105l0-14c0-42-35-76-77-76l-150 0c-43 0-77 34-77 76l0 14-104 0 0 386 512 0 0-386z m-252-14c0-13 11-24 25-24l150 0c14 0 24 11 24 24l0 14-199 0z m304 66l0 116-37 15-141 0 0-27-52 0 0 27-146 0-32-15 0-116z m-408 282l0-108 20 9 158 0 0 27 52 0 0-27 152 0 26-11 0 110-408 0z"/>
    </symbol>
  
    <symbol id="icon-guideline-maleta-lleno" viewBox="0 0 512 512">
      <path d="m422 133l0-44c0-45-37-82-82-82l-168 0c-45 0-82 37-82 82l0 44-90 0 0 154 51 29 184 0 0-34 41 0 0 34 185 0 51-29 0-154z m-280 0l0-44c0-17 13-30 30-30l168 0c16 0 30 13 30 30l0 44z m134 223l0 36-41 0 0-36-195 0-40-23 0 172 512 0 0-172-40 23z"/>
    </symbol>
  
    <symbol id="icon-guideline-manos-lineal" viewBox="0 0 512 512">
      <path d="m237 459c-37 0-75-32-108-66-26-26-40-40-47-48l-82 0 0-207 95 0c14-14 37-39 46-47 18-14 39-14 58-14 20 0 39 12 52 24 9-12 20-24 41-24l41 0c50 0 91 50 109 75l70 0 0 191-94 0c-3 5-6 9-11 14-13 14-31 18-46 18 0 0 0 0 0 0-5 9-12 19-22 27-13 11-30 14-43 15-5 12-14 25-29 34-10 5-20 8-30 8z m-185-166l53 0 8 10c0 0 7 8 53 54 52 53 70 52 76 49 6-4 9-16 9-18l4-25 25 3c9 1 22-1 27-4 7-6 11-17 11-21l6-25 26 6c7 1 17 1 20 0 8-9 7-16-5-33-2-3-4-6-5-8-4-6-25-26-46-46-4 4-8 8-12 11-18 18-74 37-109 8-14-12-22-24-23-38-1-19 11-33 18-41l10-11c5-7 12-15 20-24-8-6-15-11-19-11-13 0-22 0-26 3-6 4-29 29-47 50l-8 8-66 0z m372-2l36 0 0-87-47 0-8-13c-12-20-45-62-72-62l-38 0c-2 1-4 4-6 7-4 6-9 13-17 21-15 17-26 30-35 40l-10 12c-1 1-2 2-3 3 1 1 1 2 2 2 9 8 35 0 41-5 12-12 30-28 30-28l17-16 17 16c67 60 73 71 75 75 0 1 1 2 2 4 4 6 12 17 16 31z"/>
    </symbol>
  
    <symbol id="icon-guideline-manos-lleno" viewBox="0 0 512 512">
      <path d="m446 163c0 0-49-83-104-83-56 0-28 0-46 0-2 0-4 1-6 1-1 1-2 2-3 3l0 0c-2 3-59 70-82 95-18 18-17 21-12 29 19 27 64 10 69 8 11-5 36-27 50-42l11-10 12 9c2 2 56 44 89 86 19 24 25 45 26 60 2 0 3-1 5-1l56 0 0-155z m-31 160c0-8-2-23-18-42-22-28-54-57-71-71-14 12-36 32-51 38-34 14-84 17-111-22-17-28-7-48 16-71 12-13 32-36 50-57-2-1-3-2-4-3-10-8-22-15-34-15-19 0-34 0-46 10-12 9-56 59-56 59l-90 0 0 172 75 0c0 0 6 7 60 62 54 54 91 74 119 59 22-12 25-41 25-41 0 0 33 4 51-11 17-13 23-39 23-39 0 0 35 9 50-7 6-7 10-14 12-20 0-1 0-1 0-1z"/>
    </symbol>
  
    <symbol id="icon-guideline-martillo-lineal" viewBox="0 0 512 512">
      <path d="m485 446l0-20-195 0 0 20c-14 0-25 12-25 26 0 15 12 28 27 28l191 0c15 0 27-13 27-28 0-14-11-26-25-26z m-275-187l-201 201c-10 10-10 26 0 37 5 5 12 7 19 7 6 0 13-2 18-7l201-201c10-10 10-27 0-37-11-10-27-10-37 0z m-37-84c7 0 13-2 19-7l3-4 143 143-4 3c-10 11-10 27 0 37 5 5 12 8 19 8 6 0 13-3 18-8l109-109c10-10 10-26 0-36-10-11-27-11-37 0l-5 4-142-143 4-4c11-10 11-27 0-37-10-10-26-10-36 0l-5 5 0 0-101 101 0 0-3 3c-10 10-10 27 0 37 5 5 12 7 18 7z m229 68l-28 27-142-142 27-28z"/>
    </symbol>
  
    <symbol id="icon-guideline-martillo-lleno" viewBox="0 0 512 512">
      <path d="m474 456l0-20-193 0 0 20c-15 1-26 12-26 27 0 14 12 26 27 26l191 0c14 0 26-12 26-26 0-15-11-26-25-27z m27-246c-13-12-33-12-46 0l-1 2-153-154 1-1c12-13 12-33 0-46-13-13-34-13-46 0l-100 100c-13 13-13 33 0 46 12 13 33 13 46 0l1-1 47 47-238 239c-15 16-15 42 0 58 16 15 42 15 58 0l238-239 48 48-1 1c-13 13-13 34 0 46 13 13 33 13 46 0l100-100c13-12 13-33 0-46z"/>
    </symbol>
  
    <symbol id="icon-guideline-mas-lineal" viewBox="0 0 512 512">
      <path d="m511 230l-229 0 0-230-52 0 0 230-230 0 0 52 230 0 0 229 52 0 0-229 229 0z"/>
    </symbol>
  
    <symbol id="icon-guideline-mas-lleno" viewBox="0 0 512 512">
      <path d="m256 0c-141 0-256 115-256 256 0 141 115 256 256 256 141 0 256-115 256-256 0-141-115-256-256-256z m147 277l-130 0 0 130-34 0 0-130-130 0 0-35 130 0 0-129 34 0 0 129 130 0z"/>
    </symbol>
  
    <symbol id="icon-guideline-menos-lineal" viewBox="0 0 512 512">
      <path d="m0 221l512 0 0 52-512 0z"/>
    </symbol>
  
    <symbol id="icon-guideline-menos-lleno" viewBox="0 0 512 512">
      <path d="m255 0c-141 0-255 114-255 255 0 142 114 256 255 256 142 0 256-114 256-256 0-141-114-255-256-255z m147 277l-293 0 0-35 293 0 0 35z"/>
    </symbol>
  
    <symbol id="icon-guideline-mensaje-lineal" viewBox="0 0 512 512">
      <path d="m0 95l0 361 511 0 0-361z m458 53l0 9-202 117-203-117 0-9z m-405 255l0-185 203 117 202-117 0 185z"/>
    </symbol>
  
    <symbol id="icon-guideline-mensaje-lleno" viewBox="0 0 512 512">
      <path d="m256 305l-256-149 0 267 512 0 0-266z m0-42l256-148 0-36-512 0 0 36z"/>
    </symbol>
  
    <symbol id="icon-guideline-menu-lineal" viewBox="0 0 512 512">
      <path d="m0 58l511 0 0 52-511 0z m0 186l511 0 0 52-511 0z m0 185l511 0 0 52-511 0z"/>
    </symbol>
  
    <symbol id="icon-guideline-menu-lleno" viewBox="0 0 512 512">
      <path d="m0 0l0 512 512 0 0-512z m407 381l-302 0 0-35 302 0z m0-109l-302 0 0-36 302 0z m0-110l-302 0 0-35 302 0z"/>
    </symbol>
  
    <symbol id="icon-guideline-movil-lineal" viewBox="0 0 512 512">
      <path d="m283 415c0 15-12 27-27 27-15 0-27-12-27-27 0-14 12-26 27-26 15 0 27 12 27 26z m-196-414l0 512 338 0 0-512z m285 459l-232 0 0-89 232 0z m0-142l-232 0 0-264 232 0z"/>
    </symbol>
  
    <symbol id="icon-guideline-movil-lleno" viewBox="0 0 512 512">
      <path d="m97-1l0 512 318 0 0-512z m159 475c-15 0-27-12-27-27 0-14 12-26 27-26 15 0 27 12 27 26 0 15-12 27-27 27z m123-90l-246 0 0-333 246 0z"/>
    </symbol>
  
    <symbol id="icon-guideline-ojo-lineal" viewBox="0 0 512 512">
      <path d="m255 159c-54 0-98 43-98 97 0 54 44 98 98 98 53 0 97-44 97-98 0-54-44-97-97-97z m0 143c-26 0-46-20-46-46 0-25 20-46 46-46 25 0 46 21 46 46 0 26-21 46-46 46z m256-44l-9-15c-4-6-88-150-244-150-155 0-245 144-249 150l-9 14 9 13c8 14 92 149 243 149 122 0 203-88 233-129z m-259 110c-90 0-152-63-181-99l-9-13c25-32 95-112 196-112 100 0 166 77 189 110-1 2-2 4-4 6l-9 11c-30 37-94 97-182 97z"/>
    </symbol>
  
    <symbol id="icon-guideline-ojo-lleno" viewBox="0 0 512 512">
      <path d="m259 105c-163 0-259 157-259 157 0 0 8 14 23 33l1 1 0 0c36 46 114 122 228 122 124 0 208-91 241-134l17-22c0-1-89-157-251-157z m-4 278c-67 0-121-54-121-121 0-67 54-121 121-121 66 0 120 54 120 121 0 67-54 121-120 121z m67-121c0 37-30 67-67 67-37 0-67-30-67-67 0-37 30-67 67-67 37 0 67 30 67 67z"/>
    </symbol>
  
    <symbol id="icon-guideline-pendrive-lineal" viewBox="0 0 512 512">
      <path d="m292 220c-10-11-26-11-36 0l-130 129c-10 10-10 27 0 37 5 5 12 7 18 7 7 0 14-2 19-7l129-130c10-10 10-26 0-36z m218-76l-145-145-68 69-21-21-237 237c-25 25-39 59-39 94 0 36 14 70 39 95 25 25 59 39 95 39 35 0 69-14 94-39l237-237-23-23z m-145-71l72 72-32 31-71-72z m-173 363c-16 16-36 24-58 24-22 0-43-8-58-24-16-15-24-36-24-58 0-22 8-42 24-58l200-200 35 35 81 81z"/>
    </symbol>
  
    <symbol id="icon-guideline-pendrive-lleno" viewBox="0 0 512 512">
      <path d="m511 145l-145-145-68 68-21-21-237 237c-25 25-39 59-39 95 0 35 14 69 39 94 25 25 59 39 95 39 35 0 69-14 94-39l237-237-23-23z m-218 111l-129 130c-5 5-12 7-19 7-6 0-13-2-18-7-10-10-10-27 0-37l129-129c11-10 27-10 37 0 10 10 10 26 0 36z m113-80l-68-69-3-2 31-32 72 72z"/>
    </symbol>
  
    <symbol id="icon-guideline-play-boton-lineal" viewBox="0 0 512 512">
      <path d="m256 1c-141 0-255 115-255 255 0 141 114 255 255 255 141 0 255-114 255-255 0-140-114-255-255-255z m0 458c-112 0-202-91-202-203 0-111 90-202 202-202 112 0 202 91 202 202 0 112-90 203-202 203z m-73-365l0 325 219-163z m53 105l77 57-77 58z"/>
    </symbol>
  
    <symbol id="icon-guideline-play-boton-lleno" viewBox="0 0 512 512">
      <path d="m255 1c-141 0-255 114-255 255 0 141 114 255 255 255 141 0 256-114 256-255 0-141-115-255-256-255z m-47 367l0-224 151 112z"/>
    </symbol>
  
    <symbol id="icon-guideline-play-lineal" viewBox="0 0 512 512">
      <path d="m34 512l0-512 444 256z m53-421l0 329 285-164z"/>
    </symbol>
  
    <symbol id="icon-guideline-play-lleno" viewBox="0 0 512 512">
      <path d="m35 0l442 255-442 256z"/>
    </symbol>
  
    <symbol id="icon-guideline-porcentaje-lineal" viewBox="0 0 512 512">
      <path d="m381 263c-68 0-124 56-124 124 0 69 56 125 124 125 69 0 125-56 125-125 0-68-56-124-125-124z m0 197c-40 0-73-33-73-73 0-40 33-72 73-72 40 0 73 32 73 72 0 40-33 73-73 73z m-126-336c0-68-56-124-124-124-69 0-125 56-125 124 0 69 56 125 125 125 68 0 124-56 124-125z m-197 0c0-40 33-72 73-72 40 0 72 32 72 72 0 41-32 73-72 73-40 0-73-32-73-73z m11 320l333-406 40 33-333 406z"/>
    </symbol>
  
    <symbol id="icon-guideline-porcentaje-lleno" viewBox="0 0 512 512">
      <path d="m322 286c-21 0-38 17-38 38 0 20 17 37 38 37 20 0 37-17 37-37 0-21-17-38-37-38z m-69-280c-140 0-253 113-253 253 0 140 113 253 253 253 140 0 253-113 253-253 0-140-113-253-253-253z m-140 173c0-39 32-70 71-70 39 0 71 31 71 70 0 39-32 71-71 71-39 0-71-32-71-71z m35 174l183-223 26 22-183 222z m174 41c-39 0-71-31-71-70 0-40 32-71 71-71 39 0 71 31 71 71 0 39-32 70-71 70z m-100-215c0-20-17-37-38-37-20 0-37 17-37 37 0 21 17 38 37 38 21 0 38-17 38-38z"/>
    </symbol>
  
    <symbol id="icon-guideline-pregunta-lineal" viewBox="0 0 512 512">
      <path d="m290 473c0 22-17 39-39 39-21 0-38-17-38-39 0-21 17-38 38-38 22 0 39 17 39 38z m81-433c-29-26-68-40-117-40-45 0-83 13-110 37-27 23-43 57-50 100l0 3 56 6 1-2c6-34 18-58 35-74 18-18 42-27 69-27 29 0 54 10 73 29 20 19 30 42 30 67 0 15-3 28-10 40-7 11-21 27-43 46-22 19-37 34-45 44-11 13-19 26-24 39-7 17-10 38-10 62 0 3 0 7 0 12l0 3 52 0 0-3c1-22 3-38 5-48 4-12 9-22 15-31 6-9 20-23 41-41 30-26 50-49 60-67 10-18 15-38 15-60 0-37-14-69-43-95z"/>
    </symbol>
  
    <symbol id="icon-guideline-pregunta-lleno" viewBox="0 0 512 512">
      <path d="m256 0c-141 0-256 115-256 256 0 141 115 256 256 256 141 0 256-115 256-256 0-141-115-256-256-256z m-1 413c-14 0-26-11-26-25 0-14 12-26 26-26 14 0 25 12 25 26 0 14-11 25-25 25z m89-194c-6 11-19 25-36 40-13 11-21 19-24 24-4 6-7 12-9 18-2 7-3 17-3 32l-34 0c0-4 0-8 0-10 0-15 2-27 6-38l0 0c3-8 8-16 15-24 5-5 14-14 26-25 13-12 22-21 26-28 4-7 6-15 6-23 0-14-6-28-18-39-11-11-25-17-42-17-16 0-30 6-41 16-10 10-17 25-21 46l-36-4c4-28 14-49 30-64 17-15 40-22 67-22 30 0 53 8 71 24 17 16 26 35 26 58 0 13-3 25-9 36z"/>
    </symbol>
  
    <symbol id="icon-guideline-pregunta-nube-lineal" viewBox="0 0 512 512">
      <path d="m280 335c0 11-8 20-19 20-11 0-19-9-19-20 0-11 8-19 19-19 11 0 19 8 19 19z m37-203c-13-12-32-19-55-19-21 0-39 6-52 18-13 12-21 29-24 50l0 1 30 4 1 0 0-1c2-16 8-28 16-35 8-8 18-12 30-12 12 0 23 5 31 13 9 8 13 18 13 29 0 6-1 11-4 16-3 5-10 12-20 21-9 9-16 16-20 20-5 7-9 13-12 19-3 8-4 18-4 29 0 2 0 5 0 9l0 1 29 0 0-1c0-11 1-20 2-25 2-5 4-9 6-13 3-4 9-10 19-18 14-12 23-23 28-32 5-8 7-18 7-28 0-18-7-33-21-46z m-305 380l49-146c-24-38-37-82-37-127 0-132 107-239 239-239 132 0 240 107 240 239 0 132-108 239-240 239-32 0-62-6-92-18z m251-460c-103 0-187 84-187 187 0 39 12 76 34 108l8 11-24 73 81-27 9 5c25 11 52 17 79 17 104 0 188-84 188-187 0-103-84-187-188-187z"/>
    </symbol>
  
    <symbol id="icon-guideline-pregunta-nube-lleno" viewBox="0 0 512 512">
      <path d="m256 1c-135 0-245 109-245 244 0 53 17 102 45 142l-41 125 137-45c32 15 67 23 104 23 135 0 245-110 245-245 0-135-110-244-245-244z m-11 393c-13 0-24-11-24-24 0-13 11-24 24-24 13 0 24 11 24 24 0 13-11 24-24 24z m85-180c-6 10-18 23-35 38-11 10-18 17-22 22-3 5-6 10-7 16-2 6-3 16-3 30l0 1-35 0 0-1c0-5-1-8-1-10 0-14 2-26 6-36 3-7 8-15 14-23 5-5 13-14 25-24 12-11 20-19 24-25 3-6 5-13 5-20 0-14-5-25-16-35-10-10-23-15-38-15-14 0-27 4-36 13-10 9-16 24-19 43l-1 1 0 0-37-5 0 0c3-27 13-47 29-62 16-14 37-21 64-21 27 0 50 8 66 23 17 15 25 34 25 55 0 13-3 24-8 35z"/>
    </symbol>
  
    <symbol id="icon-guideline-reloj-lineal" viewBox="0 0 512 512">
      <path d="m255 511c-140 0-255-115-255-256 0-140 115-255 255-255 141 0 256 115 256 255 0 141-115 256-256 256z m0-459c-112 0-203 91-203 203 0 113 91 204 203 204 113 0 204-91 204-204 0-112-91-203-204-203z m57 282l-105-59 0-163 52 0 0 133 79 44z"/>
    </symbol>
  
    <symbol id="icon-guideline-reloj-lleno" viewBox="0 0 512 512">
      <path d="m255 0c-141 0-255 114-255 255 0 142 114 256 255 256 142 0 256-114 256-256 0-141-114-255-256-255z m83 325l-100-57 0-158 34 0 0 138 83 47z"/>
    </symbol>
  
    <symbol id="icon-guideline-salir-lineal" viewBox="0 0 512 512">
      <path d="m77 52l268 0 0-52-320 0 0 510 320 0 0-52-268 0z m262 351l148-148-148-148-37 37 85 85-243 0 0 52 243 0-85 85z"/>
    </symbol>
  
    <symbol id="icon-guideline-salir-lleno" viewBox="0 0 512 512">
      <path d="m256 0c-141 0-256 115-256 256 0 141 115 256 256 256 141 0 256-115 256-256 0-141-115-256-256-256z m71 408l-189 0 0-301 189 0 0 35-154 0 0 232 154 0z m-3-63l-24-24 46-46-137 0 0-35 137 0-46-46 24-24 88 88z"/>
    </symbol>
  
    <symbol id="icon-guideline-torta-lineal" viewBox="0 0 512 512">
      <path d="m256 1c-140 0-255 115-255 255 0 141 115 255 255 255 141 0 255-114 255-255 0-140-114-255-255-255z m29 230l0-176c90 13 161 85 172 176z m-232 25c0-104 79-190 180-202l0 228 0 0 0 0 121 152c-29 16-62 25-98 25-112 0-203-91-203-203z m343 147l-97-121 158 0c-6 48-28 90-61 121z"/>
    </symbol>
  
    <symbol id="icon-guideline-torta-lleno" viewBox="0 0 512 512">
      <path d="m290 273l135 174c49-43 81-105 86-174z m-9-35l230 0c-9-125-106-225-230-237z m-35 35l0 0 0 0 0-17 0 0 0-256c-137 5-246 117-246 255 0 142 114 257 256 257 52 0 101-16 142-44z"/>
    </symbol>
  
    <symbol id="icon-guideline-ubicacion-lineal" viewBox="0 0 512 512">
      <path d="m258 512c-28 0-44-20-49-32l-104-222c-7-12-10-20-12-26-6-18-9-37-9-57 0-96 78-174 174-174 96 0 174 78 174 174 0 21-4 42-11 62-1 1-1 2-1 3-3 6-8 17-9 18l-104 222c-5 12-21 32-49 32z m-115-296c1 3 8 18 9 20l105 224 1 0c0 0 1 0 1 0l1-2 105-223c1-2 5-10 7-14l0-2 0 0 0 0c6-14 9-29 9-44 0-68-55-123-123-123-68 0-123 55-123 123 0 14 3 28 8 41z m115 51c-50 0-91-41-91-91 0-50 41-90 91-90 50 0 91 40 91 90 0 50-41 91-91 91z m0-130c-21 0-39 18-39 39 0 21 18 39 39 39 21 0 39-17 39-39 0-21-18-39-39-39z"/>
    </symbol>
  
    <symbol id="icon-guideline-ubicacion-lleno" viewBox="0 0 512 512">
      <path d="m266-1c-92 0-166 75-166 166 0 20 4 39 10 56 0 0 11 24 11 25l117 247c0 0 7 19 28 19 21 0 28-19 28-19l117-249c0 0 6-11 8-17 0 0 1-3 1-3 7-18 11-38 11-59 0-91-74-166-165-166z m0 239c-40 0-72-32-72-72 0-39 32-72 72-72 40 0 72 33 72 72 0 40-32 72-72 72z"/>
    </symbol>
  
    <symbol id="icon-guideline-upload-lineal" viewBox="0 0 512 512">
      <path d="m374 419c0 13-11 24-24 24-13 0-24-11-24-24 0-13 11-23 24-23 13 0 24 10 24 23z m72 0c0 13-10 24-23 24-13 0-24-11-24-24 0-13 11-23 24-23 13 0 23 10 23 23z m-17-123l-36 0 0 0 0 51 36 0c17 0 31 14 31 31l0 82-408 0 0-82c0-17 14-31 30-31l39 0 0-51 0 0-39 0c-45 0-82 37-82 82l0 134 511 0 0-134c0-45-37-82-82-82z m-265 19l184 0 0-94 112 0-204-221-204 221 112 0z m92-239l86 93-46 0 0 95-81 0 0-95-45 0z"/>
    </symbol>
  
    <symbol id="icon-guideline-upload-lleno" viewBox="0 0 512 512">
      <path d="m430 281l-36 0 0 52-272 0 0-51 0-1-39 0c-45 0-82 37-82 83l0 134 511 0 0-134c0-46-37-83-82-83z m-79 148c-13 0-24-11-24-24 0-13 11-24 24-24 13 0 23 11 23 24 0 13-10 24-23 24z m72 0c-13 0-23-11-23-24 0-13 10-24 23-24 13 0 24 11 24 24 0 13-11 24-24 24z m-238-245l0 101 143 0 0-101 85 0-156-170-156 170z"/>
    </symbol>
  
    <symbol id="icon-guideline-usuario-lineal" viewBox="0 0 512 512">
      <path d="m256 237c-60 0-110-53-110-118 0-66 50-119 110-119 60 0 110 53 110 119 0 65-50 118-110 118z m0-185c-31 0-57 30-57 67 0 36 26 66 57 66 31 0 57-30 57-66 0-37-26-67-57-67z m219 460l-438 0 0-96c0-123 70-148 129-148l180 0c59 0 129 25 129 148z m-385-53l332 0 0-43c0-84-36-96-76-96l-180 0c-40 0-76 12-76 96z"/>
    </symbol>
  
    <symbol id="icon-guideline-usuario-lleno" viewBox="0 0 512 512">
      <path d="m256 238c-60 0-110-54-110-119 0-66 50-119 110-119 60 0 110 53 110 119 0 65-49 119-110 119z m219 274l-438 0 0-96c0-122 70-148 129-148l180 0c59 0 129 26 129 148z"/>
    </symbol>
  
    <symbol id="icon-guideline-vehiculo-lineal" viewBox="0 0 512 512">
      <path d="m511 250l-48-112-110 0 0-62-353 0 0 308 76 0c-4 8-7 16-7 26 0 26 22 48 49 48 27 0 48-22 48-48 0-10-2-18-7-26l183 0c-4 8-7 16-7 26 0 26 22 48 49 48 27 0 48-22 48-48 0-10-2-18-7-26l86 0 0-134z m-210-112l0 195-249 0 0-205 249 0 0 10z m158 195l-106 0 0-143 76 0 30 71z"/>
    </symbol>
  
    <symbol id="icon-guideline-wifi-lineal" viewBox="0 0 512 512">
      <path d="m324 433l-52 0c0-106-87-193-193-193l0-52c135 0 245 110 245 245z m-166 0c0-44-35-79-79-79-44 0-79 35-79 79 0 44 35 79 79 79 44 0 79-35 79-79z m353 0l-52 0c0-209-171-380-380-380l0-52c238 0 432 194 432 432z"/>
    </symbol>
  
    <symbol id="icon-guideline-wifi-lleno" viewBox="0 0 512 512">
      <path d="m255 0c-141 0-255 114-255 255 0 142 114 256 255 256 142 0 256-114 256-256 0-141-114-255-256-255z m-86 367c-18 0-33-15-33-34 0-18 15-33 33-33 19 0 34 15 34 33 0 19-15 34-34 34z m90-25c0-55-44-98-98-98l0-35c73 0 133 59 133 132l-35 0z m99 0c0-109-88-197-197-197l0-34c128 0 231 103 231 230l-34 0z"/>
    </symbol>
  
    <symbol id="icon-administrador-criterios" viewBox="0 0 512 512">
      <path d="m307 512l-102 0c-5 0-9-4-9-8l0-56c-12-4-23-8-34-14l-39 39c-3 4-9 4-12 0l-72-72c-2-2-3-4-3-6 0-2 1-4 3-6l39-39c-6-11-10-22-14-34l-56 0c-4 0-8-4-8-9l0-102c0-5 4-8 8-8l56 0c4-12 8-24 14-34l-39-40c-2-1-3-3-3-6 0-2 1-4 3-6l72-72c3-3 9-3 12 0l39 39c11-5 22-10 34-14l0-55c0-5 4-9 9-9l102 0c5 0 8 4 8 9l0 55c12 4 24 9 34 14l40-39c3-3 8-3 11 0l73 73c2 1 2 3 2 5 0 3 0 5-2 6l-39 40c5 10 10 22 14 34l55 0c5 0 9 3 9 8l0 102c0 5-4 9-9 9l-55 0c-4 12-9 23-14 34l39 39c3 3 3 9 0 12l-73 72c-3 4-8 4-11 0l-40-39c-10 6-22 10-34 14l0 56c0 4-3 8-8 8z m-94-17l86 0 0-53c0-4 2-7 6-8 15-4 29-10 42-18 3-1 7-1 10 2l38 38 60-61-38-38c-2-3-3-7-1-10 7-13 13-27 17-42 1-3 5-6 8-6l54 0 0-86-54 0c-3 0-7-2-8-6-4-15-10-29-17-42-2-3-1-7 1-10l38-38-60-60-38 38c-3 2-7 3-10 1-13-7-27-13-42-17-4-1-6-5-6-8l0-54-86 0 0 54c0 3-3 7-6 8-15 4-29 10-42 17-3 2-8 1-10-1l-38-38-61 60 38 38c3 3 3 7 2 10-8 13-14 27-18 42-1 4-4 6-8 6l-53 0 0 86 53 0c4 0 7 3 8 6 4 15 10 29 18 42 1 3 1 7-2 10l-38 38 61 61 38-38c2-3 7-3 10-2 13 8 27 14 42 18 3 1 6 4 6 8l0 53z m48-154c-50 0-90-40-90-90 0-49 40-89 90-89 49 0 89 40 89 89 0 50-40 90-89 90z m0-162c-40 0-72 33-72 72 0 40 32 72 72 72 39 0 72-32 72-72 0-39-33-72-72-72z"/>
    </symbol>
  
    <symbol id="icon-nuevomenu-administracion" viewBox="0 0 512 512">
      <path d="m502 247l-32 0 0-82c0-4-4-8-8-8l-10 0 0-61c0-5-4-8-9-8l-161 0-15-43c-1-4-4-6-8-6l-205 0c-4 0-8 4-8 8l0 57-10 0c-5 0-8 4-8 8l0 135-20 0c-4 0-8 4-8 9l0 215c0 4 4 8 8 8l494 0c4 0 8-4 8-8l0-215c0-5-4-9-8-9z m-439-191l190 0 16 43c1 3 4 5 7 5l159 0 0 53-170 0-17-47c-1-4-4-6-7-6l-178 0z m-19 65l10 0 181 0 17 47c1 4 4 6 8 6l194 0 0 73-118 0c-4 0-8 4-8 9l0 53-146 0 0-53c0-5-4-9-8-9l-130 0z m450 341l-478 0 0-198 149 0 0 53c0 4 4 8 9 8l162 0c5 0 9-4 9-8l0-53 113 0c2 0 3 1 4 1 1 0 2-1 3-1l29 0z m-178-77l-129 0c-4 0-8 3-8 8 0 4 4 8 8 8l129 0c5 0 9-4 9-8 0-5-4-8-9-8z"/>
    </symbol>
  
    <symbol id="icon-nuevomenu-auditoria" viewBox="0 0 512 512">
      <path d="m168 208l100 0c4 0 8-4 8-8 0-5-4-9-8-9l-100 0c-5 0-8 4-8 9 0 4 3 8 8 8z m143 54l-143 0c-5 0-8 4-8 9 0 4 3 8 8 8l143 0c5 0 8-4 8-8 0-5-3-9-8-9z m159-133c0-1-1-2-2-3l-124-124c-1-1-3-2-5-2l-289 0c-5 0-9 4-9 8l0 495c0 5 4 8 9 8l412 0c5 0 9-3 9-8l0-371c0-1-1-2-1-3z m-124-101l96 95-96 0z m-288 467l0-478 272 0 0 115c0 1 0 3 1 4-24-22-56-36-91-36-74 0-135 61-135 135 0 75 61 135 135 135 24 0 46-6 65-17l8 14-12 7c-4 3-5 8-3 12l56 90c1 2 3 3 6 3 0 1 1 1 1 1 2 0 3-1 5-2l39-24c4-3 5-8 3-12l-57-89c-1-2-3-4-5-4-2-1-4 0-6 1l-13 8-8-14c34-24 56-64 56-109 0-37-16-71-40-96 1 1 2 1 3 1l116 0 0 355-396 0z m182-142c-65 0-118-53-118-118 0-65 53-118 118-118 65 0 118 53 118 118 0 65-53 118-118 118z m102 15l47 76-25 16-47-76z"/>
    </symbol>
  
    <symbol id="icon-nuevomenu-catalogo" viewBox="0 0 512 512">
      <path d="m198 316l248 0c4 0 7-3 8-6l55-207c1-2 1-5-1-7-1-2-4-3-6-3l-377 0-13-49c-1-3-4-6-8-6l-93 0c-5 0-9 4-9 9 0 4 4 8 9 8l87 0 69 254c0 0-1 1-1 1-14 10-22 25-22 43 0 25 17 46 40 52-4 7-6 14-6 22 0 26 21 47 47 47 26 0 47-21 47-47 0-7-2-14-5-20l80 0c-3 6-5 13-5 20 0 26 21 47 47 47 26 0 47-21 47-47 0-7-2-14-5-20l36 0c4 0 8-3 8-8 0-4-4-8-8-8l-269 0c-21 0-38-17-38-38 0-21 17-37 38-37z m57 111c0 17-13 30-30 30-17 0-30-13-30-30 0-7 2-14 7-20l46 0c5 6 7 13 7 20z m164 0c0 17-13 30-30 30-17 0-31-13-31-30 0-7 3-14 8-20l46 0c5 6 7 13 7 20z m72-317l-51 189-259 0-51-189z"/>
    </symbol>
  
    <symbol id="icon-nuevomenu-cerrar" viewBox="0 0 512 512">
      <path d="m373 138c-5-6-14-6-20 0l-97 97-98-97c-6-6-15-6-20 0-6 5-6 14 0 20l97 97-97 98c-6 5-6 15 0 20 2 3 6 5 10 5 4 0 7-2 10-5l98-97 97 97c3 3 6 5 10 5 4 0 8-2 10-5 6-5 6-15 0-20l-97-98 97-97c6-6 6-15 0-20z m-117-138c-141 0-256 115-256 255 0 141 115 256 256 256 140 0 255-115 255-256 0-140-115-255-255-255z m0 482c-125 0-227-102-227-227 0-124 102-226 227-226 124 0 226 102 226 226 0 125-102 227-226 227z"/>
    </symbol>
  
    <symbol id="icon-nuevomenu-contrato" viewBox="0 0 512 512">
      <path d="m510 242c-3-5-65-117-88-144-3-3-8-4-11-1 0 0-13 10-33 10-7 0-14-1-21-4-9-3-17-6-24-9-24-9-41-15-57-13-7 1-19 5-33 11-7-3-24-11-44-14-24-5-37 8-42 13-3 2-5 4-8 7-9 9-19 20-54 4-4-2-9-1-11 3l-83 139c-2 4-1 8 2 11l40 30c-3 6-7 17-4 28 1 8 6 15 14 20 6 4 12 7 17 8 0 1 0 3 0 4 0 9 4 17 11 23l2 3c7 5 15 8 23 8 1 0 3 0 4 0 0 9 4 17 11 23l2 2c6 5 14 9 23 9 2 0 5-1 7-1 1 5 4 11 8 15l2 1c5 5 12 7 18 7 8 0 15-3 21-9l13-15 21 17c4 4 7 6 13 7 1 0 3 0 4 0 7 0 13-2 19-7 4-3 7-6 9-11 8 6 29 11 43-3 5-6 9-11 11-16 3 1 6 3 9 3 7 2 19 0 30-11 4-4 9-11 11-18 4 2 8 3 13 2 7 0 14-3 19-9 7-6 17-21 9-41 10-7 32-26 82-72 3-2 4-6 2-10z m-434 83c-3 0-7-1-14-6-4-2-6-6-7-9-2-8 2-16 4-20 25 6 30 13 30 18 1 0 1 1 1 1l-11 12c-1 1-2 3-3 4 0 0 0 0 0 0z m19 33l-3-2c-3-3-5-7-5-12-1-4 1-8 4-12l32-35c3-3 8-5 12-5 5 0 9 1 12 4l2 2c3 4 5 8 6 12 0 2-1 4-1 6l-35 38c-2 2-3 4-4 6-6 3-15 3-20-2z m39 34l-2-3c-3-3-5-7-5-11-1-3 0-5 1-7 1-1 2-2 2-3l32-35c2-2 4-4 5-6 3-3 7-5 11-5 5 0 9 2 12 4l2 3c3 3 5 7 6 11 0 5-2 9-5 12l-4 5c-1 1-3 2-4 3l-25 28c-1 1-2 2-3 3-6 6-16 6-23 1z m55 23c-3 4-11 5-15 1l-1-2c-3-2-4-4-4-7 0-2 0-4 1-5l29-32c2-1 4-2 6-2 3 0 5 1 7 3l2 1c2 2 4 5 4 8 0 3-1 5-3 7z m217-62c-3 3-6 5-9 5-5 0-11-4-12-6-3-2-8-3-11-1-3 3-5 7-3 10 1 3-3 11-9 18-7 6-13 7-15 6-1 0-7-4-12-8-2-2-6-2-9-1-3 2-4 5-4 8 0 6-5 13-10 18-9 9-22 2-22 2-3-3-7-7-7-8-3-2-6-3-9-2-3 1-6 4-6 8 0 5-2 10-6 13-3 3-7 4-10 4-2-1-2-1-5-4l-20-16 0 0c5-6 8-13 7-20 0-7-3-14-9-19l-1-1c-4-3-8-5-12-6 2-4 2-9 2-13 0-9-4-18-11-24l-2-2c-8-7-20-10-30-7-1-8-5-15-11-21l-2-2c-13-12-35-11-47 2l-9 10c-8-13-25-19-43-23l-2 0c0-1-1 0-2 0l-36-27 76-126c40 16 56 0 66-10 2-2 4-4 6-5 1-1 2-2 3-3 0 0 8-11 26-8 10 2 19 5 26 7-6 3-12 6-18 9-8 4-15 7-19 8-13 6-15 20-17 34-1 8-2 16-5 23-2 5-4 9-6 14-8 15-15 31-9 43 3 5 9 9 18 10 26 5 49-11 71-45 11-18 14-19 17-19 2 0 4 1 7 1 6 2 26 26 39 41 12 14 23 27 31 33 5 4 18 17 31 30 29 29 41 41 48 44 7 15-3 25-4 26z m10-41c-8-6-28-26-42-41-14-14-26-26-33-31-6-5-18-18-29-31-25-29-38-43-47-46-3-1-7-2-11-2-12 0-20 9-31 27-18 29-36 41-55 38-3 0-5-1-5-2-2-5 4-19 9-28 2-5 5-10 6-15 4-9 5-19 7-27 1-11 3-19 7-20 3-2 10-5 19-9 21-10 56-26 68-28 12-1 26 4 48 13 7 3 15 6 24 9 9 3 18 5 27 5 16 0 29-5 36-9 21 29 66 108 78 130-32 30-68 61-76 67z"/>
    </symbol>
  
    <symbol id="icon-nuevomenu-doc-tributario" viewBox="0 0 512 512">
      <path d="m310 397l121-38c-5-14-6-16-6-18l-121 37c1 3 1 5 6 19z m197-306c0-22-9-44-24-59-1-1-1-2-2-3-1-1-2-1-2-2-11-10-23-18-37-22-9-3-19-4-29-4 0 0-3 0-3 0-2 0-4 0-6 0l-28 0-287 0c-10 0-60 1-76 35-6 8-9 17-9 27l0 68c0 4 4 8 9 8l68 0 0 365c0 4 4 8 8 8l410 0c5 0 8-4 8-8l0-369c0 0 0-1 0-1l1-38c0 0 0-1 0-1l0-2c0 0-1-2-1-2z m-486-28c0-7 2-13 6-18 0 0 0 0 0 0 1-1 3-3 4-4 1-1 1-1 2-1 1-2 2-2 4-3 0-1 1-1 1-1 2-1 3-1 5-2 1 0 1 0 2 0 2-1 4-1 6-1 17 0 30 13 30 30l0 59-60 0z m470 32c0 0 0 0 0 1l-1 39c0 0 0 1 1 1l0 359-393 0 0-362c0-1 0-1 0-2l0-68c0-3 0-6 0-9-1-1-1-1-1-2-1-2-1-4-2-6 0-1 0-2-1-2-1-3-2-5-3-7-1 0-1 0-1 0-1-3-3-5-5-7 0 0-1-1-2-1-1-2-3-3-4-4-1-1-2-1-2-2-2-1-4-2-7-3 0 0 0 0-1-1 0 0 0 0 0 0 10-1 18-2 21-1l314-1 6 1c0 0 3-1 3-1 8 0 16 2 24 4 12 4 21 10 30 18 0 0 2 2 2 2 0 0 1 1 1 1 12 14 20 31 21 51z m-333 19l273 0c5 0 8-4 8-9 0-5-3-8-8-8l-273 0c-5 0-9 3-9 8 0 5 4 9 9 9z m0 75l273 0c5 0 8-4 8-9 0-4-3-8-8-8l-273 0c-5 0-9 4-9 8 0 5 4 9 9 9z m122 64c0-5-4-9-9-9l-113 0c-5 0-9 4-9 9 0 4 4 8 9 8l113 0c5 0 9-4 9-8z m87 18c-54 0-97 44-97 98 0 53 43 97 97 97 54 0 98-43 98-97 0-54-44-98-98-98z m0 178c-44 0-80-36-80-80 0-45 36-81 80-81 45 0 81 36 81 81 0 44-36 80-81 80z"/>
    </symbol>
  
    <symbol id="icon-nuevomenu-dropdown" viewBox="0 0 512 512">
      <path d="m256 383c-4 0-8-1-10-4l-241-241c-6-5-6-15 0-20 6-6 15-6 20 0l231 230 230-230c6-6 15-6 21 0 5 5 5 15 0 20l-241 241c-3 3-6 4-10 4z"/>
    </symbol>
  
    <symbol id="icon-nuevomenu-gestion" viewBox="0 0 512 512">
      <path d="m406 322c-30 0-57-15-74-39-13-19-18-43-14-66 5-24 18-44 37-57 15-10 33-16 51-16 29 0 56 15 73 39 28 40 17 95-23 123-15 10-32 16-50 16z m0-161c-15 0-29 4-41 12-16 11-27 28-31 47-3 19 1 38 12 54 13 20 36 31 60 31 14 0 29-4 41-12 33-23 41-68 18-101-13-20-36-31-59-31z m-208 222c-3 0-5-1-7-3-15-22-40-34-66-31-2 0-5-1-6-2-2-1-3-3-3-6l-13-170c0-2 0-5 2-6 1-2 3-3 6-3 13-1 25-5 36-13 10-7 19-16 24-28 1-2 3-4 5-4 2-1 4-1 6 0l154 74c4 2 6 7 4 11-11 23-9 51 6 72 1 2 2 4 1 6 0 2-1 4-3 5l-141 97c-2 1-3 1-5 1z m-66-51c26 0 51 12 68 32l128-88c-12-22-15-49-6-73l-140-68c-6 11-15 21-26 28-11 7-23 12-36 14l12 155c0 0 0 0 0 0z m0 178c-30 0-57-15-73-39-14-19-19-43-15-66 5-24 18-44 38-57 14-10 32-16 50-16 29 0 56 15 73 39 28 40 17 95-23 123-15 10-32 16-50 16z m0-161c-15 0-29 4-41 12-16 11-27 28-30 47-4 19 0 38 11 54 14 20 36 31 60 31 14 0 29-4 41-12 33-23 41-68 18-101-13-20-35-31-59-31z m-26-170c0 0 0 0 0 0-29 0-57-15-73-39-14-19-19-43-14-66 4-24 17-44 37-57 14-11 32-16 50-16 29 0 56 14 73 39 28 40 17 95-23 123-15 10-32 16-50 16z m0-162c-15 0-29 5-41 13-16 11-27 28-30 47-4 19 0 38 11 54 14 19 36 31 60 31 15 0 29-4 41-13 33-22 41-67 19-100-14-20-36-32-60-32z"/>
    </symbol>
  
    <symbol id="icon-nuevomenu-home" viewBox="0 0 512 512">
      <path d="m505 184l-245-151c-3-2-6-2-9 0l-245 151c-4 2-5 7-3 11 3 4 8 5 12 3l29-18 0 290c0 4 3 8 8 8l406 0c4 0 8-4 8-8l0-291 31 19c1 0 2 1 4 1 3 0 5-2 7-4 2-4 1-9-3-11z m-203 278l-105 0 0-136 105 0z m148 0l-132 0 0-145c0-4-4-8-8-8l-121 0c-5 0-8 4-8 8l0 145-121 0 0-292 196-120 194 119 0 293z"/>
    </symbol>
  
    <symbol id="icon-nuevomenu-hora" viewBox="0 0 512 512">
      <path d="m256 508c-139 0-252-113-252-252 0-139 113-252 252-252 139 0 252 113 252 252 0 139-113 252-252 252z m0-476c-123 0-224 101-224 224 0 123 101 224 224 224 123 0 224-101 224-224 0-123-101-224-224-224z m14 256l-105 0c-8 0-14-6-14-14 0-8 6-14 14-14l91 0 0-130c0-8 6-14 14-14 8 0 15 6 15 14l0 144c0 8-7 14-15 14z"/>
    </symbol>
  
    <symbol id="icon-nuevomenu-licitacion" viewBox="0 0 512 512">
      <path d="m339 207l-121 107-46-46c-3-3-8-3-12 0-3 3-3 8 0 12l52 51c1 1 3 2 5 2 2 0 4 0 6-2l127-111c3-3 4-8 1-12-3-3-9-4-12-1z m131-78c0-1-1-2-2-3 0 0 0 0 0 0l-123-123c-2-2-4-3-6-3l-288 0c-5 0-9 4-9 9l0 494c0 4 4 8 9 8l411 0c5 0 9-4 9-8l0-371c0-1-1-2-1-3z m-123-101l95 96-95 0z m-288 466l0-477 271 0 0 115c0 5 4 8 8 8l116 0 0 354z"/>
    </symbol>
  
    <symbol id="icon-nuevomenu-mispagos" viewBox="0 0 512 512">
      <path d="m503 110l-495 0c-2 0-4 1-6 3-1 1-2 3-2 5l0 278c0 5 4 8 8 8l495 0c5 0 8-4 8-8l0-278c0-4-3-8-8-8z m-8 278l-478 0 0-261 478 0z m-440-95c23 0 41 18 41 41 0 5 4 8 8 8l303 0c5 0 8-3 8-8 0-23 19-41 41-41 5 0 9-4 9-9l0-54c0-5-4-9-9-9-22 0-41-18-41-41 0-4-4-8-8-8l-303 0c-4 0-8 4-8 8 0 23-18 41-41 41-2 0-4 1-6 3-2 2-2 4-2 6l0 54c0 5 3 9 8 9z m57-104l287 0c4 25 24 45 49 49l0 39c-25 3-45 23-49 49l-287 0c-3-26-23-46-49-49l0-39c26-4 46-24 49-49z m144 114c25 0 46-21 46-46 0-25-21-46-46-46-26 0-46 21-46 46 0 12 4 24 13 33 9 8 20 13 33 13z m0-75c16 0 29 13 29 29 0 16-13 29-29 29-8 0-16-3-21-8-6-6-9-13-9-21 0-16 14-29 30-29z"/>
    </symbol>
  
    <symbol id="icon-nuevomenu-obraspublicas" viewBox="0 0 512 512">
      <path d="m509 479c-4-3-76-78-88-89-12-12-29-18-48-18-19 0-36 6-49 17-1 1-3 3-6 6l-67-67c4-7 4-15 4-15l0-87c0-25 0-45 0-47 0-5-1-10-5-14 0 0 0 0 0 0 0 0 0 0 0 0 0-2-1-3-3-4l-112-116c-11-11-29-11-40 0l-67 66c-10 9-11 24-4 35 1 0 4 6 10 10 7 5 15 5 24 2l33 34-5 5c-11 11-33 33-45 44l-6 6c-8 8-9 13-9 21 0 5-1 88-1 99-3 10-21 70-23 83-4 18 8 35 22 42 4 2 9 4 14 4 3 0 7-1 10-2 7-3 16-9 22-25 8-22 25-79 26-81 0-1 0-1 0-2l3-47 41 40c0 14 0 64 0 81 0 9 3 17 10 23 7 8 19 11 27 11 17 0 37-9 38-33 0-21 0-100 0-104 0-2-1-4-2-5 0 0-53-56-63-67 0 0 0-1 0-1 1-1 6-6 13-12 0 0 0 0 0 0l4-5 32 33 0 9c0 11 5 31 25 35 2 0 3 0 5 0 5 0 9-1 12-3l65 66c-24 24-64 65-70 71-3 2-4 6-2 9 1 3 4 5 7 5l262 1c0 0 0 0 0 0 3 0 6-2 7-5 2-3 1-7-1-9z m-437-330c0 0 0 0 0 0 3-2 5-4 6-5l36-34 29 31-40 39 0 0z m106 106l3-3c0 0 0 0 0 0l19-19 0 44z m49 72c-11-2-11-18-11-18l0-96c0-4-2-7-5-8-3-1-6-1-9 2l-10 10-23 24c0 0 0 0 0 0l-4 4c0 0 0 0 0 0l-2 3-4 3c-4 5-8 9-8 9-7 6-11 11-12 12-2 2-3 3-5 5 0 0 0 0 0 0-2 4-5 11 3 19 5 5 51 53 62 65 0 15 0 81-1 100-1 15-15 16-22 16 0 0 0 0 0 0-3 0-10-1-15-6-3-3-4-7-4-11-1-20 0-84 0-84 0-3-1-5-3-6l-57-56c-2-2-6-2-9-1-3 1-5 4-5 7l-3 64c-3 8-18 59-26 79-3 8-7 13-12 15-4 2-8 1-11-1-8-4-15-14-13-24 2-10 16-58 24-82 0-1 0-2 0-3 0 0 0-94 0-100 0-5 0-5 4-9l7-6c0 0 0 0 0 0 0 0 0 0 0 0 11-11 33-33 44-44l64-61c3-3 3-9 0-12l-37-39c-5-5-15-6-20 0l-38 36c-1 0-2 1-4 3-2 1-4 3-8 6-6 3-9 2-11 0-2-2-4-4-5-5-3-5-2-11 2-15l67-65c4-5 11-5 16 0l113 115c0 1 0 1 1 2 1 2 2 4 2 6 0 1 0 21 0 46l-1 86c0 3-1 11-5 14-1 1-3 2-6 1z m34 149c23-23 48-49 63-63 0 0 0 0 0 0 0 0 0 0 0 0 6-6 10-10 11-11 10-9 23-14 38-14 14 0 28 5 37 14 8 8 51 51 73 74z m-52-383c0 32 25 57 57 57 14 0 28-6 39-16l16 16c0 1 1 2 2 2 2 1 5 2 8 2 3 0 7-1 9-5 2-2 5-6-3-33 5-14 17-57-14-84-31-25-59-15-80-4 0 0-1 1-1 1-2 1-4 2-5 3-3 0-9 1-15 0-3 0-7 2-8 5-1 4-1 7 2 10l8 8c-10 11-15 24-15 38z m36-47c1 0 2-1 2-1 1-1 2-1 4-2 21-12 40-16 61 2 26 21 11 60 8 68-1 2-1 4 0 6 1 3 2 7 3 10l-11-11c-1-1-1-1-2-1 0 0 0-1-1-1-3-3-8-2-11 2-8 10-20 16-32 16-23 0-41-18-41-41 0-12 6-24 16-31 4-3 4-8 2-12-1 0-1-1-2-1 0 0 0-1 0-1l0 0c2 0 3-1 4-2z"/>
    </symbol>
  
    <symbol id="icon-nuevomenu-orden-de-compra" viewBox="0 0 512 512">
      <path d="m470 129c-1-1-1-2-2-3 0 0 0 0 0 0l-124-123c-1-2-3-3-6-3l-288 0c-5 0-8 4-8 9l0 494c0 5 3 8 8 8l412 0c5 0 8-3 8-8l0-371c0-1 0-2 0-3z m-124-101l96 96-96 0z m-288 467l0-478 272 0 0 115c0 5 3 8 8 8l116 0 0 355z m196-246l-3-1c-17-6-29-14-33-23-2-5-2-11 1-18 2-8 7-13 14-15 18-8 46 2 56 7 4 2 9 0 11-4 2-4 0-9-4-11-1-1-21-10-42-11l0-46c0-4-4-8-9-8-4 0-8 4-8 8l0 46c-4 1-7 2-10 3-12 5-20 13-24 25-4 11-4 22 0 31 6 13 20 24 43 32l2 0c28 10 43 17 36 42-3 10-9 17-19 21-15 6-37 3-54-7-4-3-9-1-11 2-3 4-1 10 3 12 10 6 22 11 34 12l0 45c0 5 4 8 8 8 5 0 9-3 9-8l0-45c6 0 12-1 17-3 15-6 25-17 29-32 12-42-22-54-46-62z"/>
    </symbol>
  
    <symbol id="icon-nuevomenu-recepcion" viewBox="0 0 512 512">
      <path d="m459 113c0-1-1-2-1-3 0 0 0 0 0-1l-64-105c-1-2-4-4-7-4l-262 0c-3 0-6 2-7 4l-64 105c0 1 0 1 0 1 0 1-1 2-1 3 0 0 0 1 0 1 0 0 0 0 0 0l0 389c0 4 4 8 8 8l390 0c4 0 8-4 8-8l0-389c0 0 0 0 0 0 0 0 0-1 0-1z m-23-8l-172 0 0-88 118 0z m-306-88l118 0 0 88-172 0z m312 477l-372 0 0-372 178 0 0 34 16 0 0-34 178 0z m-326-56l95 0 0 17-95 0z"/>
    </symbol>
  
    <symbol id="icon-nuevomenu-reclamos" viewBox="0 0 512 512">
      <path d="m346 25c-7-15-26-22-40-15l-2 1c-8 3-13 9-16 17-2 6-3 12-1 18l-153 133-120 55c-2 1-4 3-5 5 0 2 0 4 1 6l6 15c0 0 0 0 0 0-14 6-20 23-14 37l25 54c6 13 23 20 37 14 0-1 0-1 0-1l6 14c2 3 5 4 8 4 1 0 2 0 3 0l31-15 54 118c4 8 11 15 19 18 4 1 8 2 12 2 4 0 9-1 13-3l3-2c8-3 14-10 17-18 4-8 3-17 0-25l-54-119 26-11 201-29c5 8 14 13 24 13 4 0 9-1 13-3l2-1c15-7 22-25 15-40z m-131 438c2 4 2 9 0 13-1 4-4 8-9 10l-2 1c-5 2-9 2-13 0-5-1-8-4-10-8l-54-118 34-16z m-133-99l-8-17c-1-2-3-4-6-4 0 0-1 0-1 0-2 0-4 0-6 2l-5 5c-5 2-12-1-14-6l-25-54c-2-6 0-12 6-15 1 0 2 0 3 1 3 1 7 1 9-2 2-2 3-6 2-9l-9-19 107-49 27 59 26 59z m353-72l-2 1c-2 1-4 1-6 1-5 0-11-3-13-8-1-3-5-5-8-5l-202 29-28-61-28-61 154-133c3-3 3-7 2-11-2-3-2-7-1-11 1-3 4-6 8-8l1 0c7-4 16 0 19 7l111 241c3 8 0 16-7 19z m-20-156c2 3 5 5 8 5 1 0 2 0 3 0l49-21c4-2 6-7 4-11-2-4-7-6-11-4l-49 21c-4 1-6 6-4 10z m90 55l-58-12c-4-1-8 1-9 6-1 4 1 9 6 9l58 13c1 0 1 0 2 0 3 0 7-3 8-7 1-4-2-8-7-9z m-110-105c2 1 3 1 4 1 3 0 6-1 7-4l32-50c2-4 1-9-3-11-4-3-9-2-11 2l-31 51c-3 3-2 8 2 11z"/>
    </symbol>
  
    <symbol id="icon-nuevomenu-usuario" viewBox="0 0 512 512">
      <path d="m253 224c-56 0-102-50-102-112 0-62 46-112 102-112 57 0 102 50 102 112 0 62-45 112-102 112z m0-195c-40 0-73 37-73 83 0 46 33 83 73 83 41 0 73-37 73-83 0-46-32-83-73-83z m202 483l-404 0c-8 0-14-6-14-15l0-72c0-95 41-143 121-143l190 0c81 0 122 48 122 143l0 72c0 9-7 15-15 15z m-389-29l375 0 0-58c0-79-29-114-93-114l-190 0c-64 0-92 35-92 114l0 58z"/>
    </symbol>
  
    <symbol id="icon-guideline-excel" viewBox="0 0 512 512">
      <path d="m495 59l-180 0 0 59 60 0 0 40-60 0 0 39 59 0 0 39-59 0 0 40 59 0 0 39-59 0 0 39 59 0 0 40-59 0 0 59 180 0c10 0 17-8 17-17l0-360c0-9-7-17-17-17z m-22 335l-79 0 0-40 79 0z m0-79l-79 0 0-39 79 0z m0-79l-79 0 0-39 79 0z m0-78l-79 0 0-40 79 0z m-473-101l0 398 295 57 0-512z m187 299l-35-65c-1-2-2-7-4-13l0 0c-1 3-2 7-5 14l-34 64-54 0 64-100-58-99 54 0 29 59c2 5 4 11 6 17l0 0c2-4 4-9 7-17l31-59 50 0-59 98 61 101z"/>
    </symbol>
  
    <symbol id="icon-guideline-vehiculo-lleno" viewBox="0 0 512 512">
      <path d="m511 250l-48-114-107 0 0-61-356 0 0 313 77 0c-3 6-5 13-5 20 0 26 22 48 48 48 26 0 48-22 48-48 0-7-2-14-5-20l175 0c-3 6-4 13-4 20 0 26 21 48 47 48 27 0 48-22 48-48 0-7-2-14-4-20l86 0z m-155 5l0-58 77 0 23 58z"/>
    </symbol>
  
    <symbol id="icon-guideline-almacen-lleno" viewBox="0 0 512 512">
      <path d="m480 69l0-66-449 0 0 68-31 79 0 5c0 36 33 66 72 66 7 0 15-1 23-3l0-95c0-10 8-18 18-18 9 0 17 8 17 18l0 95c10 4 20 6 31 6 10 0 20-2 29-5l0-96c0-10 8-18 18-18 9 0 17 8 17 18l0 95c10 4 20 6 31 6 11 0 21-2 30-5l0-96c0-10 8-17 18-17 9 0 17 7 17 17l0 96c9 3 18 5 29 5 11 0 22-3 32-6l0-95c0-10 8-18 17-18 10 0 18 8 18 18l0 94c7 3 14 4 22 4 1 0 1 0 1 0 40-1 72-30 72-66l0-5z m-39 184c-1 0-1 0-1 0-15 0-29-5-40-12-15 9-32 15-50 15-17 0-32-5-46-13-14 8-30 13-47 13-17 0-34-5-48-13-14 8-30 13-47 13-18 0-34-5-48-13-14 7-29 10-41 10-10 0-19-2-27-5l0 261 64 0 0-192 88 0 0 192 268 0 0-261c-8 3-16 5-25 5z m-41 168l-135 0 0-105 135 0z"/>
    </symbol>
  
    <symbol id="icon-guideline-almacen-lineal" viewBox="0 0 512 512">
      <path d="m479 86l0-66-447 0 0 68-30 78 0 5c0 26 17 48 41 59l0 262 83 0 0-1 25 0 0-179 44 0 0 179 10 0 0 1 264 0 0-262c24-11 41-33 41-59l0-5z m-395 11l0-26 344 0 0 24 30 79c-2 6-10 11-20 11 0 0 0 0 0 0-7 0-18-6-28-13l0-53c0-10-7-17-17-17-9 0-17 7-17 17l0 59c0 0 0 1-1 1-7 6-16 9-26 9-12 0-22-4-29-11 0-1-1-1-1-1l0-57c0-10-8-17-17-17-9 0-17 7-17 17l0 57c0 1-1 1-1 1-1 1-1 1-1 2-8 6-17 9-27 9-11 0-21-4-29-11 0-1 0-1-1-1l0-57c0-10-7-17-17-17-9 0-17 7-17 17l0 57c-1 1-2 2-4 3-7 6-16 9-26 9-9 0-17-3-24-7l0-62c0-10-8-17-17-17-10 0-17 7-17 17l0 53c-3 2-5 3-7 5 0 0 0 0-1 1l0 0c-3 3-15 7-22 7-10 0-18-5-20-11z m145 344l0-163-113 0 0 163-21 0 0-207c6-2 13-4 20-8 14 8 30 13 47 13 17 0 33-5 47-13 14 8 30 13 47 13 17 0 33-4 47-12 14 8 29 12 46 12 17 0 34-5 49-14 6 3 13 6 20 8l0 208z m25-36l141 0 0-127-141 0z m34-93l73 0 0 59-73 0z"/>
    </symbol>
  
    <symbol id="icon-guideline-calendario-lineal" viewBox="0 0 512 512">
      <path d="m30 151l0 358 444 0 0-358z m391 114l-90 0 0-61 90 0z m0 95l-90 0 0-61 90 0z m-338 35l90 0 0 60-90 0z m0-96l90 0 0 61-90 0z m214-34l-90 0 0-61 90 0z m0 95l-90 0 0-61 90 0z m-124-95l-90 0 0-61 90 0z m34 130l90 0 0 60-90 0z m124 0l90 0 0 60-90 0z m143-316l-62 0 0-52c0-14-12-26-26-26-14 0-26 12-26 26l0 52-216 0 0-52c0-14-12-26-26-26-14 0-26 12-26 26l0 52-62 0 0 51 444 0z"/>
    </symbol>
  
    <symbol id="icon-guideline-calendario-lleno" viewBox="0 0 512 512">
      <path d="m474 153l0-64-50 0 0-31c0-31-25-56-55-56-31 0-56 25-56 56l0 31-122 0 0-31c0-31-25-56-56-56-31 0-56 25-56 56l0 31-49 0 0 89 0 0 0 332 444 0 0-357z m-53 113l-90 0 0-61 90 0z m0 95l-90 0 0-60 90 0z m-125-95l-89 0 0-61 89 0z m0 95l-89 0 0-60 89 0z m-214-156l90 0 0 61-90 0z m90 96l0 60-90 0 0-60z m-90 95l90 0 0 60-90 0z m125 0l89 0 0 60-89 0z m124 0l90 0 0 60-90 0z m21-338c0-10 7-17 17-17 9 0 17 7 17 17l0 78c0 9-7 16-16 17l-3 0c-8-1-15-8-15-17z m-234 0c0-10 8-17 17-17 10 0 17 7 17 17l0 78c0 9-7 16-16 17l-2 0c-9-1-16-8-16-17z"/>
    </symbol>
  
    <symbol id="icon-guideline-download-lleno" viewBox="0 0 512 512">
      <path d="m321 123l0-93-131 0 0 93-78 0 143 156 144-156z m100 158l-69 0-96 102-96-102-69 0c-57 0-88 42-88 82l0 132 506 0 0-132c0-40-31-82-88-82z m-73 163c-14 0-26-12-26-26 0-14 12-26 26-26 14 0 25 12 25 26 0 14-11 26-25 26z m78 0c-14 0-25-12-25-26 0-14 11-26 25-26 15 0 26 12 26 26 0 14-11 26-26 26z"/>
    </symbol>
  
    <symbol id="icon-guideline-facebook-lleno" viewBox="0 0 512 512">
      <path d="m256 5c-139 0-251 112-251 251 0 139 112 251 251 251 139 0 251-112 251-251 0-139-112-251-251-251z m65 262l-43 0 0 151-62 0 0-151-30 0 0-53 30 0 0-35c0-24 11-63 63-63l47 0 0 52-34 0c-6 0-14 3-14 14l0 32 48 0z"/>
    </symbol>
  
    <symbol id="icon-guideline-linkedin-lleno" viewBox="0 0 512 512">
      <path d="m272 234l0-1c0 1 0 1 0 1z m-16-229c-139 0-251 112-251 251 0 139 112 251 251 251 139 0 251-112 251-251 0-139-112-251-251-251z m-73 377l-58 0 0-173 58 0z m-29-197l0 0c-20 0-32-13-32-30 0-17 13-30 32-30 20 0 32 13 33 30 0 17-13 30-33 30z m236 197l-57 0 0-93c0-23-9-39-29-39-16 0-26 11-30 21-1 4-2 9-2 14l0 97-57 0c0 0 0-157 0-173l57 0 0 24c8-11 21-28 52-28 38 0 66 25 66 78l0 99z"/>
    </symbol>
  
    <symbol id="icon-guideline-youtube-lleno" viewBox="0 0 512 512">
      <path d="m256 5c-139 0-251 112-251 251 0 139 112 251 251 251 139 0 251-112 251-251 0-139-112-251-251-251z m146 310c0 24-20 43-44 43l-204 0c-24 0-44-19-44-43l0-117c0-24 20-44 44-44l204 0c24 0 44 20 44 44z m-175-9l83-55-83-55z"/>
    </symbol>
  
    <symbol id="icon-guideline-twitter-lleno" viewBox="0 0 512 512">
      <path d="m256 5c-139 0-251 112-251 251 0 139 112 251 251 251 139 0 251-112 251-251 0-139-112-251-251-251z m132 188c0 3 0 5 0 8 0 84-64 181-181 181-36 0-69-11-97-29 5 1 10 1 15 1 30 0 57-10 79-27-28 0-52-19-60-44 4 1 8 1 12 1 6 0 12-1 17-2-29-6-51-32-51-63 0 0 0 0 0 0 9 4 18 7 29 8-17-12-28-31-28-53 0-12 3-23 8-32 32 38 78 63 131 66-1-5-1-9-1-14 0-36 28-64 63-64 18 0 35 8 47 20 14-3 28-8 40-15-5 15-15 27-28 35 13-2 25-5 37-10-9 13-20 24-32 33z"/>
    </symbol>
  
    <symbol id="icon-guideline-youtube-lineal" viewBox="0 0 512 512">
      <path d="m382 205c0-21-17-38-38-38l-176 0c-21 0-38 17-38 38l0 101c0 21 17 38 38 38l176 0c21 0 38-17 38-38l0-101z m-151 93l0-95 72 48z m25 211c-140 0-253-113-253-253 0-140 113-253 253-253 140 0 253 113 253 253 0 140-113 253-253 253z m0-455c-111 0-202 91-202 202 0 111 91 202 202 202 111 0 202-91 202-202 0-111-91-202-202-202z"/>
    </symbol>
  
    <symbol id="icon-guideline-twitter-lineal" viewBox="0 0 512 512">
      <path d="m256 509c-140 0-253-113-253-253 0-140 113-253 253-253 140 0 253 113 253 253 0 140-113 253-253 253z m0-455c-111 0-202 91-202 202 0 111 91 202 202 202 111 0 202-91 202-202 0-111-91-202-202-202z m135 124c-9 5-20 8-31 9 11-7 20-18 24-31-11 7-22 11-35 14-10-11-24-18-40-18-31 0-55 25-55 55 0 5 0 9 1 13-46-2-86-24-113-58-5 9-8 18-8 28 0 19 10 36 25 46-9 0-18-3-25-7 0 0 0 1 0 1 0 26 19 49 44 54-5 1-10 2-15 2-3 0-7-1-10-1 7 22 27 38 51 38-18 15-42 24-68 24-4 0-9-1-13-1 24 15 53 25 84 25 102 0 157-84 157-157 0-3 0-5 0-7 11-8 20-18 27-29"/>
    </symbol>
  
    <symbol id="icon-guideline-facebook-lineal" viewBox="0 0 512 512">
      <path d="m314 256l-38 0 0 136-56 0 0-136-27 0 0-49 27 0 0-31c0-22 10-57 57-57l42 0 0 47-31 0c-5 0-12 3-12 13l0 28 43 0z m-58 253c-140 0-253-113-253-253 0-140 113-253 253-253 140 0 253 113 253 253 0 140-113 253-253 253z m0-455c-111 0-202 91-202 202 0 111 91 202 202 202 111 0 202-91 202-202 0-111-91-202-202-202z"/>
    </symbol>
  
    <symbol id="icon-guideline-linkedin-lineal" viewBox="0 0 512 512">
      <path d="m368 277l0 83-48 0 0-77c0-20-7-33-24-33-14 0-21 9-25 18-1 3-2 7-2 12l0 80-48 0c0 0 1-131 0-144l48 0 0 20c0 0 0 1 0 1l0 0 0-1c7-10 18-24 44-24 31 0 55 21 55 65m-197-131c-16 0-27 11-27 25 0 14 10 25 27 25l0 0c17 0 27-11 27-25 0-14-10-25-27-25m-24 214l48 0 0-144-48 0z m109 149c-140 0-253-113-253-253 0-140 113-253 253-253 140 0 253 113 253 253 0 140-113 253-253 253z m0-455c-111 0-202 91-202 202 0 111 91 202 202 202 111 0 202-91 202-202 0-111-91-202-202-202z"/>
    </symbol>
  
    <symbol id="icon-guideline-filtro-lleno" viewBox="0 0 512 512">
      <path d="m195 242c5 6 8 13 8 21l0 233c0 14 17 21 27 11l65-74c9-10 14-16 14-26l0-144c0-7 3-15 8-21l186-202c14-15 3-40-17-40l-460 0c-20 0-31 25-17 40z"/>
    </symbol>
  
    <symbol id="icon-guideline-ocultar" viewBox="0 0 512 512">
      <path d="m400 149l94-93c17-19-1-39-19-29l-106 104c-31-15-68-25-110-25-160 0-255 155-255 155 0 0 8 13 23 32l0 1 0 0c20 24 51 57 93 83l-91 88c-11 30 10 33 19 30l103-102c30 13 64 22 102 22 122 0 205-90 237-133l18-22c0 0-38-65-108-111z m-264 112c0-66 54-120 119-120 29 0 56 11 76 28l-37 36c-10-6-22-9-34-9-37 0-66 29-66 66 0 12 3 23 9 33l-41 40c-16-21-26-46-26-74z m119 119c-25 0-49-8-68-22l40-39c10 5 21 9 33 9 37 0 66-30 66-66 0-12-3-23-8-32l36-36c13 19 21 42 21 67 0 65-54 119-120 119z"/>
    </symbol>
  
    <symbol id="icon-guideline-star" viewBox="0 0 512 512">
      <path d="m256 11l79 160 176 25-128 125 31 176-158-83-158 83 30-176-128-125 177-25z"/>
    </symbol>
  
    <symbol id="icon-guideline-star-lineal" viewBox="0 0 512 512">
      <path d="m402 498c-3 0-6 0-8-2l-139-72-138 72c-6 3-13 3-18-1-5-4-8-10-7-17l27-154-112-109c-5-4-7-11-5-17 2-7 8-11 14-12l155-23 69-140c3-6 9-9 15-9 7 0 13 3 16 9l69 140 155 23c6 1 11 5 13 12 2 6 1 13-4 17l-112 109 26 154c2 7-1 13-6 17-3 2-7 3-10 3z m-347-283l94 91c4 4 6 10 5 15l-22 129 115-61c5-2 11-2 16 0l116 61-22-129c-1-5 1-11 5-15l93-91-129-19c-6-1-10-4-13-9l-58-118-58 118c-2 5-7 8-12 9z"/>
    </symbol>
  
    <symbol id="icon-guideline-flecha-derecha-lg" viewBox="0 0 512 512">
      <path d="m510 259l-58-37c-2-1-4-1-6 1-1 2 0 4 2 6l46 29-494 0 0 8 494 0-46 29c-2 2-3 4-2 6 1 1 2 2 4 2 1 0 1 0 2-1l58-37c1 0 2-2 2-3 0-1-1-3-2-3z"/>
    </symbol>
  
    <symbol id="icon-guideline-anterior-lineal" viewBox="0 0 512 512">
      <path d="m277 19c-86 0-161 47-202 117l-75-28 69 142 137-65-83-31c33-51 90-84 154-84 102 0 184 82 184 184 0 101-82 183-184 183-54 0-103-24-137-62l-41 31c43 50 107 82 178 82 130 0 235-105 235-234 0-130-105-235-235-235z"/>
    </symbol>
  
</svg>
